<?xml version="1.0" encoding="UTF-8"?>
<svg version="1.1" viewBox="0 0 2000 2000" width="1280" height="1280" xmlns="http://www.w3.org/2000/svg">
<path transform="translate(0)" d="m0 0h2e3v2e3h-2e3z" fill="#FDFDFD"/>
<path transform="translate(1303,268)" d="m0 0h2l3 6 3 20v31l-4 17-7 19-10 25-5 13-5 5-5 4-11 8-7 14-4 10v3l20 11 22 14 18 13 13 10 5-2 26-20 11-11 9-11 10-14 13-24 13-27 1-6-6-13-2-7v-20l5-37 3-9 2-2h3l4 14 3 19v30l-2-1-1-16-2-23v30l1 14 1 1 2-3h2l2-5 12-16 11-12 15-15 11-9 15-12 18-11 4-1-2 17-5 17-8 13-8 10-10 10-16 12-18 11-17 10-9 7-4 5-9 20-9 19-11 18-10 13-12 13 22-4 16-4h3v2l-17 5-25 6-10 5-15 11-9 6 4 5 8 7 14 12 11 10 8 7 11 12 10 11 7 8 10 12 13 18 12 17 17 28 11 19 13 28 10 23 13 37 8 28 7 31 5 33 2 16 1 14v68l-2 24-6 43-9 38-7 24-12 34-11 25-16 33-17 28-9 14-8 11-12 16-13 17-14 15-9 11-12 13-8 7-13 12-8 7-15 12-18 13-19 13-22 13-19 11-16 8-23 11-20 8-31 11-30 8-25 6-37 6-15 2-14 1h-76l-27-3-37-6-42-10-36-12-21-8-28-13-17-8-27-16-20-12-11-8-18-13-13-10-10-9-8-7-13-12-9-8-7-8-9-10-7-8-12-14-14-19-12-16-12-19-9-15-8-14-8-16-12-25-10-26-9-26-8-29-6-26-6-40-2-20-1-17v-47l2-31 7-46 7-30 7-26 12-34 10-24 9-20 8-16 15-26 12-19 13-18 16-21 18-20 7-8 9-10 8-8 8-7 14-12 10-9 17-13 19-14 15-10 22-13 21-12 27-13 25-10 41-14 40-10 33-6 22-3 30-2h49l29 2 40 6 28 6 25 6 12 4 1-1-12-12-6-10-2-4v-3l15 1 19 5 18 7 14 9v-3l-8-15-10-11-13-17-7-15-1-6v-8l3-18 4-10 3-1 16 20 8 8 6 9 4 11v19l-4 15v8l7 21 6 19 3 7 16 8 6 2-4-10-4-8-3-13v-19l3-16 7-21 2-8 1-2 4 1 5 15 3 12 2 13 5-19 9-20 9-19 5-14 11-33 2-7z" fill="#102141"/>
<path transform="translate(713,724)" d="m0 0 22 2 30 6 27 7 21 8 16 8 16 9 12 8 11 8 16 13 12 11 10 10 9 11 12 16 9 15 10 18 10 22 10 29 4 16 4 25 1 3v43l-4 30-6 26-8 24-11 24-11 20-8 12-8 11-9 11-9 10-7 8-13 12-13 10-19 13-3 2-3-1 6-16 2-9v-15l-16 8-19 7-8 1 5-6h2l2-6 1-2v-15l-10-31v-10l5-10 2-3v-5l-13-10-2-2v-5l9-10 2-4-9-10-4-8v-10l4-8 9-11 12-11 4-6-1-5-20-9-17-10-16-11-11-9-12-11-11-12-11-16-9-16-9-25-9-29-9-21-9-14-9-10-7-6-10-7-15-9-21-8-2-1 1-4 15-8 26-12 19-6 14-3 32-4 9-1-9-11-11-10-3-2z" fill="#2E55EE"/>
<path transform="translate(1280,725)" d="m0 0h10v2l-9 7-8 7-6 9 40 5 21 5 19 7 27 13 9 5-1 3-24 10-17 10-14 11-9 10-8 13-7 14-12 36-8 22-11 21-10 14-14 15-13 12-18 13-22 13-19 10-2 3 4 7 15 15 7 10 3 7v9l-5 10-8 8 2 4 9 9 1 5-5 5-9 7-2 2 1 5 5 8 2 7-1 9-7 20-3 12v10l4 9 6 5v3l-10-3-20-8-13-6v12l4 16 4 10-1 4-11-7-20-14-15-14-6-5-7-8-11-12-9-12-8-12-10-17-8-15-10-25-6-19-6-27-3-28v-27l2-25 6-29 7-25 5-13 8-18 8-15 6-10 13-18 13-16 9-10 4-2 1-3 8-7 16-13 15-11 24-14 21-10 27-9 25-6 23-4z" fill="#2E55ED"/>
<path transform="translate(726,751)" d="m0 0h10l5 5 8 13 9 21 7 23 10 44 8 30 10 26 8 16 9 14 10 14 8 8 7 8 15 13 19 13 4 4-1 5-5 12-7 12-9 12-6 7-1 3v9l3 9 7 7 2 1v8l-7 9-4 5-4 4 10 9 4 7-3 10-6 16v10l6 24 11-6 11-7 12-9 11-9 17-17 11-14 10-14 9-15 7-14 7-17 8-26 3-16 2-8 1-12 1-27h1l1 6v35l-4 30-6 26-8 24-11 24-11 20-8 12-8 11-9 11-9 10-7 8-13 12-13 10-19 13-3 2-3-1 6-16 2-9v-15l-16 8-19 7-8 1 5-6h2l2-6 1-2v-15l-10-31v-10l5-10 2-3v-5l-13-10-2-2v-5l9-10 2-4-9-10-4-8v-10l4-8 9-11 12-11 4-6-1-5-20-9-17-10-16-11-11-9-12-11-11-12-11-16-9-16-9-25-9-29-9-21-9-14-9-10-7-6-10-7-15-9-21-8-2-1 1-4 15-8 26-12 19-6 14-3z" fill="#FDFDFD"/>
<path transform="translate(1265,751)" d="m0 0h11l31 4 21 5 19 7 27 13 9 5-1 3-24 10-17 10-14 11-9 10-8 13-7 14-12 36-8 22-11 21-10 14-14 15-13 12-18 13-22 13-19 10-2 3 4 7 15 15 7 10 3 7v9l-5 10-8 8 2 4 9 9 1 5-5 5-9 7-2 2 1 5 5 8 2 7-1 9-7 20-3 12v10l4 9 6 5v3l-10-3-20-8-12-6v-9l3-10 1-7v-11l-5-13-3-8v-6l7-9 6-5-6-7-8-9-2-3 1-5 9-10 4-7v-11l-4-6-13-16-6-10-4-11-1-9 11-9 11-8 14-12 12-12 10-13 9-14 9-16 8-19 8-24 9-38 6-25 6-20 7-17 6-12z" fill="#FDFDFD"/>
<path transform="translate(992,652)" d="m0 0h17l11 3 10 5 10 9 6 7 5 11 2 8v16l-3 13-7 12-10 10-10 6-15 4h-16l-13-4-9-5-10-9-8-14-3-10-1-14 3-14 5-10 6-8 11-9 11-5z" fill="#FDFDFD"/>
<path transform="translate(1513,348)" d="m0 0h2v7l-8 18-11 18-9 11-7 8-9 9 16-6 17-3h32l18 3 22 6 4 2-2 4-8 5-18 8-13 4-7 1-16-1-17-4-25-10-7 1-28 18-16 8-14 6v-3l11-6 6-7 12-23 8-11 14-14 8-7 14-12 17-16z" fill="#102246"/>
<path transform="translate(1028 1e3)" d="m0 0 2 2 2 8 2 13 6 24 6 17 9 20 8 14 10 15 10 13 12 13 1 3h2v2h2v2h2v2h2v2l4 2 16 13 13 8 10 6 2 2 2 19 6 18 1 6-6-3-19-13-9-7-12-11-7-6-7-8-11-12-9-12-8-12-10-17-8-15-10-25-6-19-6-27-3-28v-7z" fill="#FDFDFD"/>
<path transform="translate(1280,725)" d="m0 0h10v2l-9 7-8 7-6 8-10 2-36 3-22 5-16 5-17 7-16 7-14 9-19 14-11 9-3 3h-2l-2 4-13 14-7 8-3 2 2-5 13-16 9-11 6-6h2l1-3 8-7 16-13 15-11 24-14 21-10 27-9 25-6 23-4z" fill="#FDFDFD"/>
<path transform="translate(713,724)" d="m0 0 22 2 30 6 27 7 21 8 16 8 16 9 12 8 11 8 16 13 12 11 10 10 9 11 5 7h-3l-5-5v-2l-4-2-20-20-18-13-13-8-17-9-25-10-21-6-14-3-27-2-17-1-12-14-12-10z" fill="#FDFDFD"/>
<path transform="translate(1505,415)" d="m0 0h32l25 5 10 4-1 2-13 6-15 5-8 2h-15l-17-3-16-5-13-5 1-4 12-3z" fill="#F9F9FB"/>
<path transform="translate(1175,297)" d="m0 0 5 2 7 9 14 14 4 8 2 11v11l-3 15-2 2-3-5-3-8-11-20-5-15-3-15v8l3 13 8 18 7 12 4 9-1 3-9-10-8-12-6-10-4-13v-13l3-12z" fill="#FDFDFD"/>
<path transform="translate(1305,289)" d="m0 0h1v27l-1 14-4 18-6 18-6 13-6 15-7 8-8 6-3 1 1-6 8-26 15-37 10-28 5-17z" fill="#FCFCFC"/>
<path transform="translate(1509,284)" d="m0 0 1 2-5 14-9 17-13 15-11 10-13 10-16 10-14 8-5 4-2-1 3-6h2l2-4 16-15 11-9 17-16 16-15 7-7 9-12z" fill="#FDFDFD"/>
<path transform="translate(1248,350)" d="m0 0h2l5 21 1 8v30l-1 6-3-1-1-16-1-36-1 53-2 13-4-2-5-13-2-11v-13l3-14 5-15z" fill="#FDFDFD"/>
<path transform="translate(1507,359)" d="m0 0 1 2-10 18-7 10-11 13-11 12-13 13-8 7-13 11-4 1 6-7 12-13 9-10 4-5 31-31v-2l-30 30-7 8-10 10-6 8-2 3-2-1 5-12 9-12 15-15 8-7 21-18 3-1 9-11z" fill="#FDFDFD"/>
<path transform="translate(1511,277)" d="m0 0 1 3-5 5-9 11-32 32-11 9-15 14-8 7-5 4 1-5 8-11 13-16 11-12 12-11 14-12 13-10z" fill="#FDFDFD"/>
<path transform="translate(1302,280)" d="m0 0h1l-1 14-6 20-8 21-6 15-5 12-10 25-5 16-2 6-1-4 3-17 10-29 14-30 6-18 8-27z" fill="#FDFDFD"/>
<path transform="translate(1146,375)" d="m0 0 3 1 3 5v2l4 2 12 8 14 5 28 6-1 3-6 3-12 2-16-6-9-6-12-11-7-11z" fill="#FDFDFD"/>
<path transform="translate(1150,376)" d="m0 0 9 1 17 6 16 7 12 7 4 3v2l-18-4-16-4-8-4-16-12z" fill="#FDFDFD"/>
<path transform="translate(1415,297)" d="m0 0h2v73h-2l-4-8-2-9v-16l4-32z" fill="#FDFDFD"/>
<path transform="translate(1494,372)" d="m0 0m-1 1 1 3-7 8-24 24-7 8-10 10-6 8-2 3-2-1 5-12 9-12 15-15 8-7 14-12z" fill="#FCFCFC"/>
<path transform="translate(1494,374)" d="m0 0 1 4-7 8-22 22-2 3h-2l-2 4-8 8-7 8-5 5-1-2 9-11 13-13 7-8 24-24z" fill="#11234A"/>
<path transform="translate(1207,411)" d="m0 0h5l5 10v3l-6-1-17-9v-1z" fill="#FDFDFD"/>
<path transform="translate(1150,378)" d="m0 0 9 6 10 7 3 1-1 3-11-6-8-6z" fill="#11244C"/>
</svg>
